<svg width="19" height="18" viewBox="0 0 19 18" fill="none" xmlns="http://www.w3.org/2000/svg">
<path d="M11.8737 7.0835L10.9284 6.92595C10.8821 7.20382 10.9604 7.48799 11.1425 7.70294C11.3246 7.91788 11.592 8.04183 11.8737 8.04183V7.0835ZM1.33203 7.0835V6.12516C0.802758 6.12516 0.373698 6.55422 0.373698 7.0835H1.33203ZM9.06643 2.6694L8.26905 2.13781L9.06643 2.6694ZM3.33203 17.6252H14.0674V15.7085H3.33203V17.6252ZM15.1841 6.12516H11.8737V8.04183H15.1841V6.12516ZM12.819 7.24105L13.5833 2.65544L11.6927 2.34035L10.9284 6.92595L12.819 7.24105ZM11.6516 0.375163H11.5626V2.29183H11.6516V0.375163ZM8.26905 2.13781L5.92005 5.66131L7.51481 6.72448L9.86381 3.20098L8.26905 2.13781ZM5.05333 6.12516H1.33203V8.04183H5.05333V6.12516ZM0.373698 7.0835V14.6668H2.29036V7.0835H0.373698ZM16.9683 15.247L18.085 9.66367L16.2055 9.28778L15.0889 14.8711L16.9683 15.247ZM5.92005 5.66131C5.72686 5.9511 5.40162 6.12516 5.05333 6.12516V8.04183C6.04246 8.04183 6.96614 7.54749 7.51481 6.72448L5.92005 5.66131ZM13.5833 2.65544C13.7822 1.46178 12.8617 0.375163 11.6516 0.375163V2.29183C11.6609 2.29183 11.6658 2.29359 11.669 2.29513C11.6733 2.29716 11.6785 2.30084 11.6834 2.30656C11.6882 2.31229 11.691 2.31805 11.6923 2.3226C11.6933 2.32605 11.6942 2.33112 11.6927 2.34035L13.5833 2.65544ZM15.1841 8.04183C15.8414 8.04183 16.3344 8.64321 16.2055 9.28778L18.085 9.66367C18.4511 7.83308 17.0509 6.12516 15.1841 6.12516V8.04183ZM14.0674 17.6252C15.4776 17.6252 16.6917 16.6298 16.9683 15.247L15.0889 14.8711C14.9915 15.358 14.564 15.7085 14.0674 15.7085V17.6252ZM11.5626 0.375163C10.2391 0.375163 9.00319 1.0366 8.26905 2.13781L9.86381 3.20098C10.2425 2.63299 10.8799 2.29183 11.5626 2.29183V0.375163ZM3.33203 15.7085C2.75673 15.7085 2.29036 15.2421 2.29036 14.6668H0.373698C0.373698 16.3007 1.69819 17.6252 3.33203 17.6252V15.7085Z" fill="#FCF553"/>
<path d="M5.16602 7.0835V16.6668" stroke="#FCF553" stroke-width="1.91667"/>
</svg>
