<svg width="16" height="16" viewBox="0 0 16 16" fill="none" xmlns="http://www.w3.org/2000/svg">
<path d="M14.75 8C14.75 9.39269 14.3282 10.6869 13.6054 11.7618C12.3935 13.5641 10.3352 14.75 8 14.75C5.66477 14.75 3.60652 13.5641 2.39457 11.7618C1.67178 10.6869 1.25 9.39269 1.25 8C1.25 4.27208 4.27208 1.25 8 1.25C11.7279 1.25 14.75 4.27208 14.75 8Z" stroke="#7C7C7C" stroke-width="1.5"/>
<path d="M8.75 5.75C8.75 6.16421 8.41421 6.5 8 6.5V8C9.24264 8 10.25 6.99264 10.25 5.75H8.75ZM8 6.5C7.58579 6.5 7.25 6.16421 7.25 5.75H5.75C5.75 6.99264 6.75736 8 8 8V6.5ZM7.25 5.75C7.25 5.33579 7.58579 5 8 5V3.5C6.75736 3.5 5.75 4.50736 5.75 5.75H7.25ZM8 5C8.41421 5 8.75 5.33579 8.75 5.75H10.25C10.25 4.50736 9.24264 3.5 8 3.5V5Z" fill="#7C7C7C"/>
<path d="M2.875 12.3923L2.1562 12.1783L2.03947 12.5702L2.30572 12.8806L2.875 12.3923ZM13.1262 12.3923L13.6955 12.8806L13.9617 12.5702L13.845 12.1783L13.1262 12.3923ZM5.75061 11H10.2506V9.5H5.75061V11ZM5.75061 9.5C4.05098 9.5 2.61726 10.6301 2.1562 12.1783L3.5938 12.6064C3.87069 11.6767 4.73261 11 5.75061 11V9.5ZM8.00061 14C6.17802 14 4.54583 13.1883 3.44428 11.904L2.30572 12.8806C3.68009 14.4829 5.72198 15.5 8.00061 15.5V14ZM10.2506 11C11.2686 11 12.1305 11.6767 12.4074 12.6064L13.845 12.1783C13.384 10.6301 11.9502 9.5 10.2506 9.5V11ZM12.5569 11.904C11.4554 13.1883 9.82319 14 8.00061 14V15.5C10.2792 15.5 12.3211 14.4829 13.6955 12.8806L12.5569 11.904Z" fill="#7C7C7C"/>
</svg>
