<svg width="103" height="103" viewBox="0 0 103 103" fill="none" xmlns="http://www.w3.org/2000/svg">
<g clip-path="url(#clip0_996_2967)">
<path fill-rule="evenodd" clip-rule="evenodd" d="M62.1663 13.5904C79.4383 13.5904 93.868 25.8621 97.2037 42.1541L80.1289 37.3631L80.749 39.7688C80.7829 39.9001 80.814 40.0323 80.8426 40.1651L75.5754 37.7648L74.389 40.3684L81.0037 43.3828C80.4507 48.3878 76.202 52.2867 71.0509 52.2867C66.041 52.2867 61.885 48.5987 61.152 43.7923L72.9577 38.4126V37.4925C72.9577 37.3067 73.0519 37.0702 73.2991 36.7168C73.4291 36.5312 73.5918 36.3267 73.8261 36.0514C73.8542 36.0181 73.9401 35.9185 74.0439 35.7984C74.2156 35.5997 74.4362 35.3441 74.5276 35.2355C76.0301 33.4566 76.7726 31.9571 76.7726 29.8746C76.7726 26.9792 74.4227 24.6293 71.5273 24.6293C68.6317 24.6293 66.2818 26.9792 66.2818 29.8746V31.3052H69.143V29.8746C69.143 28.5594 70.2119 27.4904 71.5273 27.4904C72.8425 27.4904 73.9115 28.5594 73.9115 29.8746C73.9115 31.1447 73.4491 32.0784 72.3416 33.3897C72.2607 33.4856 72.0513 33.7283 71.8811 33.9255C71.7732 34.0504 71.6811 34.1572 71.6472 34.1969C71.3593 34.5351 71.1462 34.8034 70.9548 35.0765C70.62 35.5553 70.3765 36.0235 70.2363 36.5086L61.1696 40.64C61.2178 40.346 61.2792 40.0546 61.3532 39.7669L61.9736 37.361L39.1018 43.7807V65.0238L52.4536 62.1627V92.7477H89.6482V76.4849C89.7757 76.3559 89.9021 76.2259 90.0278 76.095C93.4311 72.5501 96.1065 68.4273 97.9384 63.9393L103 65.0238V43.7807L100.273 43.0155C97.2449 24.7085 81.3256 10.7292 62.1663 10.7292C53.8645 10.7292 45.9511 13.362 39.3861 18.1672L41.076 20.4759C47.1547 16.0265 54.4776 13.5904 62.1663 13.5904ZM83.9075 41.5765C83.9197 41.8078 83.9259 42.04 83.9259 42.2728C83.9259 49.3794 78.1573 55.1478 71.0509 55.1478C63.9445 55.1478 58.1759 49.3794 58.1759 42.2728C58.1759 41.9773 58.186 41.6831 58.2059 41.3902L41.9631 45.9492V61.4849L55.3149 58.6236V89.8867H86.7869V58.6236L100.139 61.4849V45.9492L83.8961 41.3917L83.8995 41.4436L83.9064 41.5614L83.913 41.5642L83.9075 41.5765ZM95.0933 63.3296C93.7302 66.5355 91.8988 69.5337 89.6482 72.2318V62.1627L95.0933 63.3296Z" fill="#676767"/>
<path d="M35.7323 21.2014C28.7422 27.768 24.4205 36.6597 23.6615 46.2929L19.4251 40.8462L17.1667 42.603L24.9718 52.638L32.777 42.603L30.5186 40.8462L26.5651 45.9292C27.3942 37.2365 31.3597 29.2346 37.6912 23.2866L35.7323 21.2014Z" fill="#676767"/>
<path fill-rule="evenodd" clip-rule="evenodd" d="M13.7244 80.2933V59.3682H13.3891L0 64.3304V69.0467L8.33746 65.9844V91.9132H13.7244V84.768H27.1806V92.0325H32.5227V84.768H36.6133V80.4315H32.5227V59.4873H27.024L13.7244 80.2933ZM26.5547 67.8024L18.4184 80.4315H27.1806V66.6402L26.5547 67.8024Z" fill="#676767"/>
</g>
<defs>
<clipPath id="clip0_996_2967">
<rect width="103" height="103" fill="white"/>
</clipPath>
</defs>
</svg>
