<svg width="24" height="24" viewBox="0 0 24 24" fill="none" xmlns="http://www.w3.org/2000/svg">
<path d="M21.9994 16.9737V19.9845C22.0005 20.264 21.9432 20.5407 21.831 20.7968C21.7188 21.0529 21.5542 21.2828 21.3478 21.4717C21.1415 21.6607 20.8978 21.8045 20.6325 21.8941C20.3672 21.9836 20.0861 22.0169 19.8072 21.9917C16.7128 21.6562 13.7404 20.6009 11.1289 18.9107C8.69921 17.3698 6.63926 15.3139 5.09534 12.8891C3.39586 10.2709 2.33824 7.28996 2.00816 4.18783C1.98303 3.9103 2.01608 3.63059 2.1052 3.3665C2.19432 3.10242 2.33757 2.85975 2.52581 2.65394C2.71405 2.44814 2.94317 2.2837 3.19858 2.17111C3.45398 2.05852 3.73008 2.00024 4.0093 1.99998H7.02608C7.5141 1.99518 7.98722 2.16766 8.35725 2.48525C8.72727 2.80284 8.96896 3.24389 9.03727 3.72617C9.1646 4.6897 9.40074 5.63575 9.74118 6.54629C9.87648 6.90551 9.90576 7.2959 9.82556 7.67121C9.74536 8.04652 9.55903 8.39103 9.28867 8.66389L8.01156 9.93847C9.44308 12.451 11.5276 14.5314 14.0451 15.9601L15.3222 14.6855C15.5956 14.4157 15.9408 14.2297 16.3169 14.1497C16.6929 14.0696 17.0841 14.0989 17.444 14.2339C18.3564 14.5737 19.3043 14.8093 20.2698 14.9364C20.7582 15.0052 21.2044 15.2507 21.5233 15.6264C21.8422 16.002 22.0116 16.4815 21.9994 16.9737Z" stroke="black" stroke-width="2" stroke-linecap="round" stroke-linejoin="round"/>
</svg>
