<svg width="24" height="24" viewBox="0 0 24 24" fill="none" xmlns="http://www.w3.org/2000/svg">
<path fill-rule="evenodd" clip-rule="evenodd" d="M5.60351 6.69538C5.69815 6.5722 5.84466 6.5 6 6.5H20C20.1553 6.5 20.3019 6.5722 20.3965 6.69538C20.4911 6.81856 20.5231 6.97874 20.4831 7.12883L18.4831 14.6288C18.4248 14.8477 18.2265 15 18 15H8C7.77348 15 7.57525 14.8477 7.51689 14.6288L5.51689 7.12883C5.47686 6.97874 5.50887 6.81856 5.60351 6.69538ZM6.65081 7.5L8.38414 14H17.6159L19.3492 7.5H6.65081Z" fill="black"/>
<path fill-rule="evenodd" clip-rule="evenodd" d="M3 4.5H5.5C5.72943 4.5 5.92943 4.65615 5.98507 4.87873L6.48507 6.87873L5.51493 7.12127L5.10961 5.5H3V4.5Z" fill="black"/>
<path fill-rule="evenodd" clip-rule="evenodd" d="M8.5 17.5C7.94772 17.5 7.5 17.9477 7.5 18.5C7.5 19.0523 7.94772 19.5 8.5 19.5C9.05228 19.5 9.5 19.0523 9.5 18.5C9.5 17.9477 9.05228 17.5 8.5 17.5ZM6.5 18.5C6.5 17.3954 7.39543 16.5 8.5 16.5C9.60457 16.5 10.5 17.3954 10.5 18.5C10.5 19.6046 9.60457 20.5 8.5 20.5C7.39543 20.5 6.5 19.6046 6.5 18.5Z" fill="black"/>
<path fill-rule="evenodd" clip-rule="evenodd" d="M17.5 17.5C16.9477 17.5 16.5 17.9477 16.5 18.5C16.5 19.0523 16.9477 19.5 17.5 19.5C18.0523 19.5 18.5 19.0523 18.5 18.5C18.5 17.9477 18.0523 17.5 17.5 17.5ZM15.5 18.5C15.5 17.3954 16.3954 16.5 17.5 16.5C18.6046 16.5 19.5 17.3954 19.5 18.5C19.5 19.6046 18.6046 20.5 17.5 20.5C16.3954 20.5 15.5 19.6046 15.5 18.5Z" fill="black"/>
</svg>
