<svg width="20" height="18" viewBox="0 0 20 18" fill="none" xmlns="http://www.w3.org/2000/svg">
<path fill-rule="evenodd" clip-rule="evenodd" d="M3 0.5C1.61929 0.5 0.5 1.61929 0.5 3V12C0.5 13.3807 1.61929 14.5 3 14.5H14.3486L18.7227 17.416C18.8761 17.5183 19.0734 17.5278 19.2359 17.4408C19.3985 17.3538 19.5 17.1844 19.5 17V3C19.5 1.61929 18.3807 0.5 17 0.5H3ZM1.5 3C1.5 2.17157 2.17157 1.5 3 1.5H17C17.8284 1.5 18.5 2.17157 18.5 3V16.0657L14.7774 13.584C14.6952 13.5292 14.5987 13.5 14.5 13.5H3C2.17157 13.5 1.5 12.8284 1.5 12V3ZM4.5 7.5C4.5 7.22386 4.72386 7 5 7C5.27614 7 5.5 7.22386 5.5 7.5C5.5 7.77614 5.27614 8 5 8C4.72386 8 4.5 7.77614 4.5 7.5ZM5 6C4.17157 6 3.5 6.67157 3.5 7.5C3.5 8.32843 4.17157 9 5 9C5.82843 9 6.5 8.32843 6.5 7.5C6.5 6.67157 5.82843 6 5 6ZM10 7C9.72386 7 9.5 7.22386 9.5 7.5C9.5 7.77614 9.72386 8 10 8C10.2761 8 10.5 7.77614 10.5 7.5C10.5 7.22386 10.2761 7 10 7ZM8.5 7.5C8.5 6.67157 9.17157 6 10 6C10.8284 6 11.5 6.67157 11.5 7.5C11.5 8.32843 10.8284 9 10 9C9.17157 9 8.5 8.32843 8.5 7.5ZM14.5 7.5C14.5 7.22386 14.7239 7 15 7C15.2761 7 15.5 7.22386 15.5 7.5C15.5 7.77614 15.2761 8 15 8C14.7239 8 14.5 7.77614 14.5 7.5ZM15 6C14.1716 6 13.5 6.67157 13.5 7.5C13.5 8.32843 14.1716 9 15 9C15.8284 9 16.5 8.32843 16.5 7.5C16.5 6.67157 15.8284 6 15 6Z" fill="#32CD8C"/>
</svg>
