<svg width="23" height="23" viewBox="0 0 23 23" fill="none" xmlns="http://www.w3.org/2000/svg">
<g clip-path="url(#clip0_432_7979)">
<path d="M13.8749 13.9166L12.9296 14.0742C12.8833 13.7963 12.9616 13.5121 13.1437 13.2972C13.3258 13.0822 13.5932 12.9583 13.8749 12.9583V13.9166ZM3.33325 13.9166V14.875C2.80398 14.875 2.37492 14.4459 2.37492 13.9166H3.33325ZM8.69391 14.7701L9.49129 14.2385L8.69391 14.7701ZM14.6473 18.5507L13.702 18.7083L14.6473 18.5507ZM19.1664 11.6241L20.1061 11.4361L19.1664 11.6241ZM18.0164 5.87407L17.0767 6.06201L18.0164 5.87407ZM11.1048 18.3864L10.3074 18.918L11.1048 18.3864ZM5.24992 3.37496H16.137V5.29163H5.24992V3.37496ZM17.287 14.875H13.8749V12.9583H17.287V14.875ZM14.8202 13.7591L15.5926 18.3932L13.702 18.7083L12.9296 14.0742L14.8202 13.7591ZM13.702 20.625H13.4969V18.7083H13.702V20.625ZM10.3074 18.918L7.89653 15.3017L9.49129 14.2385L11.9021 17.8548L10.3074 18.918ZM7.09915 14.875H3.33325V12.9583H7.09915V14.875ZM2.37492 13.9166V6.24996H4.29159V13.9166H2.37492ZM18.9561 5.68613L20.1061 11.4361L18.2267 11.812L17.0767 6.06201L18.9561 5.68613ZM7.89653 15.3017C7.71879 15.0351 7.41957 14.875 7.09915 14.875V12.9583C8.06041 12.9583 8.95808 13.4387 9.49129 14.2385L7.89653 15.3017ZM15.5926 18.3932C15.7873 19.5615 14.8864 20.625 13.702 20.625V18.7083V18.7083L15.5926 18.3932ZM17.287 12.9583C17.8917 12.9583 18.3453 12.405 18.2267 11.812L20.1061 11.4361C20.4619 13.2152 19.1012 14.875 17.287 14.875V12.9583ZM16.137 3.37496C17.5074 3.37496 18.6874 4.34228 18.9561 5.68613L17.0767 6.06201C16.9871 5.61407 16.5938 5.29163 16.137 5.29163V3.37496ZM13.4969 20.625C12.2152 20.625 11.0183 19.9844 10.3074 18.918L11.9021 17.8548C12.2576 18.388 12.8561 18.7083 13.4969 18.7083V20.625ZM5.24992 5.29163C4.72064 5.29163 4.29159 5.72069 4.29159 6.24996H2.37492C2.37492 4.66214 3.6621 3.37496 5.24992 3.37496V5.29163Z" fill="#E91C41"/>
<path d="M7.16675 13.9166V4.33329" stroke="#E91C41" stroke-width="1.91667"/>
</g>
<defs>
<clipPath id="clip0_432_7979">
<rect width="23" height="23" fill="white" transform="matrix(1 0 0 -1 0 23)"/>
</clipPath>
</defs>
</svg>
