<svg width="20" height="20" viewBox="0 0 20 20" fill="none" xmlns="http://www.w3.org/2000/svg">
<path fill-rule="evenodd" clip-rule="evenodd" d="M2.91602 3.33333C2.91602 2.18274 3.84876 1.25 4.99935 1.25H14.9993C16.1499 1.25 17.0827 2.18274 17.0827 3.33333V18.3333C17.0827 18.4739 17.0118 18.6051 16.8941 18.682C16.7764 18.759 16.6278 18.7714 16.499 18.7151L13.3327 17.3298L10.1664 18.7151C10.0599 18.7616 9.93881 18.7616 9.83234 18.7151L6.66602 17.3298L3.49969 18.7151C3.37086 18.7714 3.2223 18.759 3.10462 18.682C2.98694 18.6051 2.91602 18.4739 2.91602 18.3333V3.33333ZM4.99935 2.08333C4.30899 2.08333 3.74935 2.64298 3.74935 3.33333V17.6962L6.49901 16.4933C6.60547 16.4467 6.72656 16.4467 6.83302 16.4933L9.99935 17.8785L13.1657 16.4933C13.2721 16.4467 13.3932 16.4467 13.4997 16.4933L16.2493 17.6962V3.33333C16.2493 2.64298 15.6897 2.08333 14.9993 2.08333H4.99935Z" fill="black"/>
<path fill-rule="evenodd" clip-rule="evenodd" d="M10.8327 9.58333H5.41602V8.75H10.8327V9.58333Z" fill="black"/>
<path fill-rule="evenodd" clip-rule="evenodd" d="M10.8327 12.9163H5.41602V12.083H10.8327V12.9163Z" fill="black"/>
<path fill-rule="evenodd" clip-rule="evenodd" d="M14.5827 9.58333H12.916V8.75H14.5827V9.58333Z" fill="black"/>
<path fill-rule="evenodd" clip-rule="evenodd" d="M14.5827 12.9163H12.916V12.083H14.5827V12.9163Z" fill="black"/>
<path fill-rule="evenodd" clip-rule="evenodd" d="M10.8327 6.25033H5.41602V5.41699H10.8327V6.25033Z" fill="black"/>
<path fill-rule="evenodd" clip-rule="evenodd" d="M14.5827 6.25033H12.916V5.41699H14.5827V6.25033Z" fill="black"/>
</svg>
