<svg width="24" height="24" viewBox="0 0 24 24" fill="none" xmlns="http://www.w3.org/2000/svg">
<path fill-rule="evenodd" clip-rule="evenodd" d="M15.6465 1.64645C15.8417 1.45118 16.1583 1.45118 16.3536 1.64645L19.3536 4.64645C19.5488 4.84171 19.5488 5.15829 19.3536 5.35355L7.35356 17.3536C7.28948 17.4176 7.20919 17.4631 7.12128 17.4851L3.12128 18.4851C2.95089 18.5277 2.77065 18.4777 2.64646 18.3536C2.52227 18.2294 2.47234 18.0491 2.51494 17.8787L3.51494 13.8787C3.53692 13.7908 3.58238 13.7105 3.64646 13.6464L15.6465 1.64645ZM4.45149 14.2556L3.68719 17.3128L6.74439 16.5485L18.2929 5L16 2.70711L4.45149 14.2556Z" fill="black"/>
<path fill-rule="evenodd" clip-rule="evenodd" d="M22 21.5H2V20.5H22V21.5Z" fill="black"/>
</svg>
