<svg width="32" height="32" viewBox="0 0 32 32" fill="none" xmlns="http://www.w3.org/2000/svg">
<path fill-rule="evenodd" clip-rule="evenodd" d="M16 0C7.16344 0 0 7.16344 0 16C0 24.8366 7.16344 32 16 32C24.8366 32 32 24.8366 32 16C32 7.16344 24.8366 0 16 0ZM17.0683 16.9354V26.6666L13.152 26.6667V16.9355H9.87728V13.1431H13.1521V10.3463C13.1521 7.1006 15.1344 5.33333 18.0298 5.33333C19.4166 5.33333 20.6086 5.43656 20.9561 5.48261V8.87447L18.9479 8.87539C17.3732 8.87539 17.0683 9.62371 17.0683 10.7217V13.143H20.8237L20.3347 16.9354H17.0683Z" fill="black"/>
</svg>
