<svg width="106" height="17" viewBox="0 0 106 17" fill="none" xmlns="http://www.w3.org/2000/svg">
<path d="M97.2616 2.76978L98.8848 6.2889L102.733 6.7452L99.888 9.37644L100.643 13.1776L97.2616 11.2846L93.8799 13.1776L94.6352 9.37644L91.7899 6.7452L95.6384 6.2889L97.2616 2.76978Z" fill="black" stroke="black" stroke-width="1.04605" stroke-linejoin="round"/>
<rect width="12.5526" height="12.5526" transform="translate(68.6708 1.72363)" fill="white"/>
<path d="M74.947 2.76978L76.5703 6.2889L80.4187 6.7452L77.5735 9.37644L78.3287 13.1776L74.947 11.2846L71.5653 13.1776L72.3206 9.37644L69.4753 6.7452L73.3238 6.2889L74.947 2.76978Z" fill="black" stroke="black" stroke-width="1.04605" stroke-linejoin="round"/>
<path d="M52.6327 2.76978L54.2559 6.2889L58.1044 6.7452L55.2591 9.37644L56.0144 13.1776L52.6327 11.2846L49.251 13.1776L50.0063 9.37644L47.161 6.7452L51.0095 6.2889L52.6327 2.76978Z" fill="black" stroke="black" stroke-width="1.04605" stroke-linejoin="round"/>
<path d="M30.3144 2.76978L31.9376 6.2889L35.7861 6.7452L32.9408 9.37644L33.6961 13.1776L30.3144 11.2846L26.9327 13.1776L27.6879 9.37644L24.8427 6.7452L28.6911 6.2889L30.3144 2.76978Z" fill="black" stroke="black" stroke-width="1.04605" stroke-linejoin="round"/>
<path d="M7.9999 2.76978L9.62312 6.2889L13.4716 6.7452L10.6263 9.37644L11.3816 13.1776L7.9999 11.2846L4.6182 13.1776L5.37348 9.37644L2.5282 6.7452L6.37669 6.2889L7.9999 2.76978Z" stroke="#ACACAC" stroke-width="1.04605" stroke-linejoin="round"/>
</svg>
