<svg width="106" height="17" viewBox="0 0 106 17" fill="none" xmlns="http://www.w3.org/2000/svg">
<path d="M97.2622 2.76978L98.8854 6.2889L102.734 6.7452L99.8886 9.37644L100.644 13.1776L97.2622 11.2846L93.8805 13.1776L94.6358 9.37644L91.7905 6.7452L95.639 6.2889L97.2622 2.76978Z" stroke="#292929" stroke-width="1.04605" stroke-linejoin="round"/>
<path d="M74.9473 2.76978L76.5705 6.2889L80.419 6.7452L77.5737 9.37644L78.329 13.1776L74.9473 11.2846L71.5656 13.1776L72.3209 9.37644L69.4756 6.7452L73.3241 6.2889L74.9473 2.76978Z" stroke="#292929" stroke-width="1.04605" stroke-linejoin="round"/>
<path d="M52.6319 2.76978L54.2551 6.2889L58.1036 6.7452L55.2583 9.37644L56.0136 13.1776L52.6319 11.2846L49.2502 13.1776L50.0054 9.37644L47.1602 6.7452L51.0086 6.2889L52.6319 2.76978Z" stroke="#292929" stroke-width="1.04605" stroke-linejoin="round"/>
<path d="M30.315 2.76978L31.9382 6.2889L35.7867 6.7452L32.9414 9.37644L33.6967 13.1776L30.315 11.2846L26.9333 13.1776L27.6885 9.37644L24.8433 6.7452L28.6917 6.2889L30.315 2.76978Z" stroke="#292929" stroke-width="1.04605" stroke-linejoin="round"/>
<path d="M8.00002 2.76978L9.62324 6.2889L13.4717 6.7452L10.6264 9.37644L11.3817 13.1776L8.00002 11.2846L4.61832 13.1776L5.37361 9.37644L2.52832 6.7452L6.37681 6.2889L8.00002 2.76978Z" stroke="#ACACAC" stroke-width="1.04605" stroke-linejoin="round"/>
</svg>
