<svg width="20" height="20" viewBox="0 0 20 20" fill="none" xmlns="http://www.w3.org/2000/svg">
<path fill-rule="evenodd" clip-rule="evenodd" d="M10.0026 2.91536C6.09059 2.91536 2.91927 6.08668 2.91927 9.9987C2.91927 11.1207 3.17986 12.1807 3.64344 13.1225C3.72446 13.2872 3.75309 13.478 3.71449 13.6661L3.03541 16.9751L6.45551 16.3352C6.6348 16.3017 6.81565 16.3288 6.97319 16.4035C7.89116 16.8385 8.91786 17.082 10.0026 17.082C13.9146 17.082 17.0859 13.9107 17.0859 9.9987C17.0859 6.08668 13.9146 2.91536 10.0026 2.91536ZM2.08594 9.9987C2.08594 5.62644 5.63035 2.08203 10.0026 2.08203C14.3749 2.08203 17.9193 5.62644 17.9193 9.9987C17.9193 14.371 14.3749 17.9154 10.0026 17.9154C8.79186 17.9154 7.64349 17.6433 6.61634 17.1565C6.61171 17.1543 6.60899 17.1543 6.60853 17.1544C6.60848 17.1544 6.60846 17.1544 6.60846 17.1544L3.18867 17.7942C2.60676 17.9031 2.10007 17.3875 2.21908 16.8076L2.89811 13.4989C2.89811 13.4989 2.89811 13.4988 2.89812 13.4988C2.89814 13.4983 2.89816 13.4954 2.89577 13.4906C2.37708 12.4368 2.08594 11.2512 2.08594 9.9987Z" fill="#FF9921"/>
<path fill-rule="evenodd" clip-rule="evenodd" d="M10.4219 8.33073V14.1641H9.58854V8.7474H8.33854V7.91406H10.0052C10.2353 7.91406 10.4219 8.10061 10.4219 8.33073Z" fill="#FF9921"/>
<path fill-rule="evenodd" clip-rule="evenodd" d="M11.6693 14.5833H8.33594V13.75H11.6693V14.5833Z" fill="#FF9921"/>
<path fill-rule="evenodd" clip-rule="evenodd" d="M10.4219 5V6.25H9.58854V5H10.4219Z" fill="#FF9921"/>
</svg>
