<svg width="23" height="23" viewBox="0 0 23 23" fill="none" xmlns="http://www.w3.org/2000/svg">
<g clip-path="url(#clip0_432_7955)">
<path d="M13.8749 9.08337L12.9296 8.92582C12.8833 9.2037 12.9616 9.48787 13.1437 9.70282C13.3258 9.91776 13.5932 10.0417 13.8749 10.0417V9.08337ZM3.33325 9.08337V8.12504C2.80398 8.12504 2.37492 8.5541 2.37492 9.08337H3.33325ZM8.69391 8.22988L9.49129 8.76147L8.69391 8.22988ZM14.6473 4.44926L13.702 4.29171L14.6473 4.44926ZM19.1664 11.3759L20.1061 11.5639L19.1664 11.3759ZM18.0164 17.1259L17.0767 16.938L18.0164 17.1259ZM11.1048 4.61361L10.3074 4.08202L11.1048 4.61361ZM5.24992 19.625H16.137V17.7084H5.24992V19.625ZM17.287 8.12504H13.8749V10.0417H17.287V8.12504ZM14.8202 9.24092L15.5926 4.60681L13.702 4.29171L12.9296 8.92582L14.8202 9.24092ZM13.702 2.37504H13.4969V4.29171H13.702V2.37504ZM10.3074 4.08202L7.89653 7.6983L9.49129 8.76147L11.9021 5.1452L10.3074 4.08202ZM7.09915 8.12504H3.33325V10.0417H7.09915V8.12504ZM2.37492 9.08337V16.75H4.29159V9.08337H2.37492ZM18.9561 17.3139L20.1061 11.5639L18.2267 11.188L17.0767 16.938L18.9561 17.3139ZM7.89653 7.6983C7.71879 7.9649 7.41957 8.12504 7.09915 8.12504V10.0417C8.06041 10.0417 8.95808 9.56129 9.49129 8.76147L7.89653 7.6983ZM15.5926 4.60681C15.7873 3.43854 14.8864 2.37504 13.702 2.37504V4.29171V4.29171L15.5926 4.60681ZM17.287 10.0417C17.8917 10.0417 18.3453 10.595 18.2267 11.188L20.1061 11.5639C20.4619 9.78484 19.1012 8.12504 17.287 8.12504V10.0417ZM16.137 19.625C17.5074 19.625 18.6874 18.6577 18.9561 17.3139L17.0767 16.938C16.9871 17.3859 16.5938 17.7084 16.137 17.7084V19.625ZM13.4969 2.37504C12.2152 2.37504 11.0183 3.0156 10.3074 4.08202L11.9021 5.1452C12.2576 4.61198 12.8561 4.29171 13.4969 4.29171V2.37504ZM5.24992 17.7084C4.72064 17.7084 4.29159 17.2793 4.29159 16.75H2.37492C2.37492 18.3379 3.6621 19.625 5.24992 19.625V17.7084Z" fill="#32CD8C"/>
<path d="M7.16675 9.08337V18.6667" stroke="#32CD8C" stroke-width="1.91667"/>
</g>
<defs>
<clipPath id="clip0_432_7955">
<rect width="23" height="23" fill="white"/>
</clipPath>
</defs>
</svg>
