<svg width="18" height="20" viewBox="0 0 18 20" fill="none" xmlns="http://www.w3.org/2000/svg">
<path fill-rule="evenodd" clip-rule="evenodd" d="M5.10414 2.9567C4.12808 3.89638 3.5 5.29986 3.5 7.15789C3.5 8.3814 4.15581 9.8845 5.09016 11.3808C6.01287 12.8584 7.15723 14.252 8.03249 15.2382C8.5571 15.8293 9.4429 15.8293 9.96751 15.2382C10.8428 14.252 11.9871 12.8584 12.9098 11.3808C13.8442 9.8845 14.5 8.3814 14.5 7.15789C14.5 5.29986 13.8719 3.89638 12.8959 2.9567C11.9159 2.0133 10.5463 1.5 9 1.5C7.45369 1.5 6.08406 2.0133 5.10414 2.9567ZM4.41058 2.2363C5.60223 1.08905 7.2326 0.5 9 0.5C10.7674 0.5 12.3978 1.08905 13.5894 2.2363C14.7849 3.38726 15.5 5.06274 15.5 7.15789C15.5 8.67799 14.7108 10.3847 13.758 11.9104C13.3605 12.547 12.9256 13.1659 12.4891 13.7441C13.8047 13.9385 14.9519 14.2425 15.8065 14.6314C16.2782 14.846 16.686 15.0978 16.983 15.3921C17.2815 15.6879 17.5 16.061 17.5 16.5C17.5 17.0783 17.1259 17.5372 16.6684 17.8752C16.2012 18.2205 15.557 18.5103 14.806 18.745C13.298 19.2162 11.2453 19.5 9 19.5C6.75468 19.5 4.70204 19.2162 3.19401 18.745C2.44297 18.5103 1.79881 18.2205 1.33156 17.8752C0.874099 17.5372 0.5 17.0783 0.5 16.5C0.5 16.061 0.718517 15.6879 1.01701 15.3921C1.31401 15.0978 1.7218 14.846 2.19346 14.6314C3.04806 14.2425 4.19527 13.9385 5.51095 13.7441C5.0744 13.1659 4.63945 12.547 4.24196 11.9104C3.28918 10.3847 2.5 8.67799 2.5 7.15789C2.5 5.06274 3.21507 3.38726 4.41058 2.2363ZM6.24666 14.6817H6.03169C4.60779 14.8641 3.42309 15.1705 2.60766 15.5416C2.1958 15.729 1.90331 15.9217 1.72091 16.1024C1.54 16.2817 1.5 16.4144 1.5 16.5C1.5 16.612 1.57362 16.8107 1.9258 17.0709C2.26819 17.3239 2.79561 17.5728 3.49228 17.7905C4.87968 18.2241 6.82705 18.5 9 18.5C11.173 18.5 13.1203 18.2241 14.5077 17.7905C15.2044 17.5728 15.7318 17.3239 16.0742 17.0709C16.4264 16.8107 16.5 16.612 16.5 16.5C16.5 16.4144 16.46 16.2817 16.2791 16.1024C16.0967 15.9217 15.8042 15.729 15.3923 15.5416C14.5769 15.1705 13.3922 14.8641 11.9683 14.6817H11.7533C11.3859 15.1333 11.0323 15.545 10.7154 15.902C9.79296 16.9414 8.20704 16.9414 7.28458 15.902C6.96768 15.545 6.61409 15.1333 6.24666 14.6817ZM9 4.5C8.17157 4.5 7.5 5.17157 7.5 6C7.5 6.82843 8.17157 7.5 9 7.5C9.82843 7.5 10.5 6.82843 10.5 6C10.5 5.17157 9.82843 4.5 9 4.5ZM6.5 6C6.5 4.61929 7.61929 3.5 9 3.5C10.3807 3.5 11.5 4.61929 11.5 6C11.5 7.38071 10.3807 8.5 9 8.5C7.61929 8.5 6.5 7.38071 6.5 6Z" fill="black"/>
</svg>
