<svg width="24" height="24" viewBox="0 0 24 24" fill="none" xmlns="http://www.w3.org/2000/svg">
<path fill-rule="evenodd" clip-rule="evenodd" d="M21 12.5H9V11.5H21V12.5Z" fill="black"/>
<path fill-rule="evenodd" clip-rule="evenodd" d="M17.8555 8.14648L21.3555 11.6465C21.5508 11.8417 21.5508 12.1583 21.3555 12.3536L17.8555 15.8536L17.1484 15.1465L20.2949 12L17.1484 8.85359L17.8555 8.14648Z" fill="black"/>
<path fill-rule="evenodd" clip-rule="evenodd" d="M15.5 4C15.5 3.72386 15.2761 3.5 15 3.5H3C2.72386 3.5 2.5 3.72386 2.5 4V20C2.5 20.2761 2.72386 20.5 3 20.5H15C15.2761 20.5 15.5 20.2761 15.5 20V17H14.5V19.5H3.5V4.5H14.5V7H15.5V4Z" fill="black"/>
</svg>
