<svg width="20" height="20" viewBox="0 0 20 20" fill="none" xmlns="http://www.w3.org/2000/svg">
<path d="M4 4.66553V3.99878C3.63177 3.99878 3.33325 4.29729 3.33325 4.66553H4ZM16.0014 4.66553H16.6682C16.6682 4.29729 16.3696 3.99878 16.0014 3.99878V4.66553ZM4 5.33227H16.0014V3.99878H4V5.33227ZM15.3347 4.66553V12.6665H16.6682V4.66553H15.3347ZM14.6679 13.3332H5.33349V14.6667H14.6679V13.3332ZM4.66675 12.6665V4.66553H3.33325V12.6665H4.66675ZM5.33349 13.3332C4.96526 13.3332 4.66675 13.0347 4.66675 12.6665H3.33325C3.33325 13.7712 4.22879 14.6667 5.33349 14.6667V13.3332ZM15.3347 12.6665C15.3347 13.0347 15.0362 13.3332 14.6679 13.3332V14.6667C15.7726 14.6667 16.6682 13.7712 16.6682 12.6665H15.3347Z" fill="#32CD8C"/>
<path d="M4 4.66553L10.0007 10.6662L16.0014 4.66553" stroke="#32CD8C" stroke-width="1.33349" stroke-linecap="round" stroke-linejoin="round"/>
</svg>
