<svg width="60" height="60" viewBox="0 0 60 60" fill="none" xmlns="http://www.w3.org/2000/svg">
<path d="M7.5 12.498V9.99805C6.11929 9.99805 5 11.1173 5 12.498H7.5ZM52.5 12.498H55C55 11.1173 53.8807 9.99805 52.5 9.99805V12.498ZM7.5 14.998H52.5V9.99805H7.5V14.998ZM50 12.498V42.4981H55V12.498H50ZM47.5 44.9981H12.5V49.9981H47.5V44.9981ZM10 42.4981V12.498H5V42.4981H10ZM12.5 44.9981C11.1193 44.9981 10 43.8788 10 42.4981H5C5 46.6402 8.35787 49.9981 12.5 49.9981V44.9981ZM50 42.4981C50 43.8788 48.8807 44.9981 47.5 44.9981V49.9981C51.6421 49.9981 55 46.6402 55 42.4981H50Z" fill="#32CD8C"/>
<path d="M7.5 12.498L30 34.9981L52.5 12.498" stroke="#32CD8C" stroke-width="5" stroke-linecap="round" stroke-linejoin="round"/>
</svg>
