<svg width="18" height="18" viewBox="0 0 18 18" fill="none" xmlns="http://www.w3.org/2000/svg">
<path fill-rule="evenodd" clip-rule="evenodd" d="M1.125 5.25C1.125 4.21447 1.96447 3.375 3 3.375H15C16.0355 3.375 16.875 4.21447 16.875 5.25V12.75C16.875 13.7855 16.0355 14.625 15 14.625H3C1.96447 14.625 1.125 13.7855 1.125 12.75V5.25ZM3 4.125C2.37868 4.125 1.875 4.62868 1.875 5.25V12.75C1.875 13.3713 2.37868 13.875 3 13.875H15C15.6213 13.875 16.125 13.3713 16.125 12.75V5.25C16.125 4.62868 15.6213 4.125 15 4.125H3Z" fill="black"/>
<path fill-rule="evenodd" clip-rule="evenodd" d="M16.2448 4.54867L16.0119 4.77076C15.9996 4.7825 15.9865 4.7934 15.9727 4.80336L9.22268 9.67836C9.09161 9.77302 8.91463 9.77302 8.78356 9.67836L2.03356 4.80336C2.01271 4.7883 1.99347 4.77114 1.97613 4.75215L1.77344 4.53005L2.32741 4.02447L2.50403 4.218L9.00312 8.91178L15.5128 4.21032L15.7273 4.00586L16.2448 4.54867Z" fill="black"/>
</svg>
