<svg width="18" height="18" viewBox="0 0 18 18" fill="none" xmlns="http://www.w3.org/2000/svg">
<path fill-rule="evenodd" clip-rule="evenodd" d="M4.125 3C4.125 1.96447 4.96447 1.125 6 1.125H12C13.0355 1.125 13.875 1.96447 13.875 3V15C13.875 16.0355 13.0355 16.875 12 16.875H6C4.96447 16.875 4.125 16.0355 4.125 15V3ZM6 1.875C5.37868 1.875 4.875 2.37868 4.875 3V15C4.875 15.6213 5.37868 16.125 6 16.125H12C12.6213 16.125 13.125 15.6213 13.125 15V3C13.125 2.37868 12.6213 1.875 12 1.875H6Z" fill="black"/>
<path fill-rule="evenodd" clip-rule="evenodd" d="M10.125 14.625H7.875V13.875H10.125V14.625Z" fill="black"/>
<path fill-rule="evenodd" clip-rule="evenodd" d="M6.375 1.5C6.375 1.29289 6.54289 1.125 6.75 1.125H11.25C11.4571 1.125 11.625 1.29289 11.625 1.5V1.875C11.625 2.91053 10.7855 3.75 9.75 3.75H8.25C7.21447 3.75 6.375 2.91053 6.375 1.875V1.5ZM7.125 1.875C7.125 2.49632 7.62868 3 8.25 3H9.75C10.3713 3 10.875 2.49632 10.875 1.875H7.125Z" fill="black"/>
</svg>
