<svg width="30" height="30" viewBox="0 0 30 30" fill="none" xmlns="http://www.w3.org/2000/svg">
<path fill-rule="evenodd" clip-rule="evenodd" d="M21.875 15C21.875 14.6548 21.5952 14.375 21.25 14.375C20.9048 14.375 20.625 14.6548 20.625 15C20.625 15.3452 20.9048 15.625 21.25 15.625C21.5952 15.625 21.875 15.3452 21.875 15ZM21.25 13.125C22.2855 13.125 23.125 13.9645 23.125 15C23.125 16.0355 22.2855 16.875 21.25 16.875C20.2145 16.875 19.375 16.0355 19.375 15C19.375 13.9645 20.2145 13.125 21.25 13.125Z" fill="black"/>
<path fill-rule="evenodd" clip-rule="evenodd" d="M15.625 15C15.625 14.6548 15.3452 14.375 15 14.375C14.6548 14.375 14.375 14.6548 14.375 15C14.375 15.3452 14.6548 15.625 15 15.625C15.3452 15.625 15.625 15.3452 15.625 15ZM15 13.125C16.0355 13.125 16.875 13.9645 16.875 15C16.875 16.0355 16.0355 16.875 15 16.875C13.9645 16.875 13.125 16.0355 13.125 15C13.125 13.9645 13.9645 13.125 15 13.125Z" fill="black"/>
<path fill-rule="evenodd" clip-rule="evenodd" d="M9.375 15C9.375 14.6548 9.09518 14.375 8.75 14.375C8.40482 14.375 8.125 14.6548 8.125 15C8.125 15.3452 8.40482 15.625 8.75 15.625C9.09518 15.625 9.375 15.3452 9.375 15ZM8.75 13.125C9.78553 13.125 10.625 13.9645 10.625 15C10.625 16.0355 9.78553 16.875 8.75 16.875C7.71447 16.875 6.875 16.0355 6.875 15C6.875 13.9645 7.71447 13.125 8.75 13.125Z" fill="black"/>
</svg>
