<svg width="18" height="4" viewBox="0 0 18 4" fill="none" xmlns="http://www.w3.org/2000/svg">
<path fill-rule="evenodd" clip-rule="evenodd" d="M2.75 1.375C3.09518 1.375 3.375 1.65482 3.375 2C3.375 2.34518 3.09518 2.625 2.75 2.625C2.40482 2.625 2.125 2.34518 2.125 2C2.125 1.65482 2.40482 1.375 2.75 1.375ZM4.625 2C4.625 0.964466 3.78553 0.125 2.75 0.125C1.71447 0.125 0.875 0.964466 0.875 2C0.875 3.03553 1.71447 3.875 2.75 3.875C3.78553 3.875 4.625 3.03553 4.625 2ZM9.625 2C9.625 1.65482 9.34518 1.375 9 1.375C8.65482 1.375 8.375 1.65482 8.375 2C8.375 2.34518 8.65482 2.625 9 2.625C9.34518 2.625 9.625 2.34518 9.625 2ZM9 0.125C10.0355 0.125 10.875 0.964466 10.875 2C10.875 3.03553 10.0355 3.875 9 3.875C7.96447 3.875 7.125 3.03553 7.125 2C7.125 0.964466 7.96447 0.125 9 0.125ZM15.875 2C15.875 1.65482 15.5952 1.375 15.25 1.375C14.9048 1.375 14.625 1.65482 14.625 2C14.625 2.34518 14.9048 2.625 15.25 2.625C15.5952 2.625 15.875 2.34518 15.875 2ZM15.25 0.125C16.2855 0.125 17.125 0.964466 17.125 2C17.125 3.03553 16.2855 3.875 15.25 3.875C14.2145 3.875 13.375 3.03553 13.375 2C13.375 0.964466 14.2145 0.125 15.25 0.125Z" fill="black"/>
</svg>
