<svg width="216" height="123" viewBox="0 0 216 123" fill="none" xmlns="http://www.w3.org/2000/svg">
<path fill-rule="evenodd" clip-rule="evenodd" d="M46 97H137C137.515 97 138.017 96.944 138.5 96.839C138.983 96.944 139.485 97 140 97H192C195.866 97 199 93.866 199 90C199 86.134 195.866 83 192 83H186C182.134 83 179 79.866 179 76C179 72.134 182.134 69 186 69H205C208.866 69 212 65.866 212 62C212 58.134 208.866 55 205 55H183C186.866 55 190 51.866 190 48C190 44.134 186.866 41 183 41H119C122.866 41 126 37.866 126 34C126 30.134 122.866 27 119 27H62C58.134 27 55 30.134 55 34C55 37.866 58.134 41 62 41H22C18.134 41 15 44.134 15 48C15 51.866 18.134 55 22 55H47C50.866 55 54 58.134 54 62C54 65.866 50.866 69 47 69H7C3.134 69 0 72.134 0 76C0 79.866 3.134 83 7 83H46C42.134 83 39 86.134 39 90C39 93.866 42.134 97 46 97ZM209 97C212.866 97 216 93.866 216 90C216 86.134 212.866 83 209 83C205.134 83 202 86.134 202 90C202 93.866 205.134 97 209 97Z" fill="#F2F2F2"/>
<path d="M150 111H172.428M47 111H68.4541H47ZM34.1279 111H41H34.1279ZM177.128 111H180H177.128Z" stroke="black" stroke-width="2.5" stroke-linecap="round" stroke-linejoin="round"/>
<path d="M81 6.3027L92.1 18.7559M133.1 6.3027L122 18.7559L133.1 6.3027ZM107 2V18.7559V2Z" stroke="#7A7A7A" stroke-width="2.5" stroke-linecap="round" stroke-linejoin="round"/>
<path fill-rule="evenodd" clip-rule="evenodd" d="M75.7976 34H138.404L132.798 42.4098L140.273 48.0164H73.9287L82.3385 42.4098L75.7976 34Z" fill="#CDCDCD"/>
<path d="M141 46H74C72.8954 46 72 46.8954 72 48V119C72 120.105 72.8954 121 74 121H141C142.105 121 143 120.105 143 119V48C143 46.8954 142.105 46 141 46Z" fill="white"/>
<path fill-rule="evenodd" clip-rule="evenodd" d="M76.585 87.006V52.6453C76.585 51.2297 77.7452 50.082 79.1765 50.082L140.153 114.164C140.153 116.052 138.642 117.582 136.778 117.582H79.9599C78.096 117.582 76.585 116.052 76.585 114.164V101.395V97.93V87.006ZM76.585 94.425V90.577V94.425Z" fill="#CDCDCD"/>
<path d="M73 87.463V49.8853C73 48.3371 74.2705 47.082 75.8377 47.082H140.761C141.782 47.082 142.609 47.9187 142.609 48.9509V117.164C142.609 119.228 140.954 120.902 138.913 120.902H76.6956C74.6546 120.902 73 119.228 73 117.164V103.199V99.41M73 95.576V91.368" stroke="black" stroke-width="2.5" stroke-linecap="round"/>
<path d="M74.8633 47.082V35.8689C74.8633 34.8368 75.6142 34 76.5405 34H138.596C139.522 34 140.273 34.8368 140.273 35.8689V47.082" stroke="black" stroke-width="2.5"/>
<path d="M92.1499 66.7052C93.9559 66.7052 95.4199 65.2412 95.4199 63.4342C95.4199 61.6284 93.9559 60.1641 92.1499 60.1641C90.3439 60.1641 88.8789 61.6284 88.8789 63.4342C88.8789 65.2412 90.3439 66.7052 92.1499 66.7052Z" fill="#CDCDCD" stroke="black" stroke-width="2.5" stroke-linecap="round"/>
<path d="M122.986 66.7052C124.792 66.7052 126.257 65.2412 126.257 63.4342C126.257 61.6284 124.792 60.1641 122.986 60.1641C121.18 60.1641 119.716 61.6284 119.716 63.4342C119.716 65.2412 121.18 66.7052 122.986 66.7052Z" fill="#CDCDCD" stroke="black" stroke-width="2.5" stroke-linecap="round"/>
<path d="M122.519 66.7051C122.519 74.9621 115.825 81.6561 107.568 81.6561C99.3112 81.6561 92.6172 74.9621 92.6172 66.7051" stroke="black" stroke-width="2.5" stroke-linecap="round"/>
<path d="M75.8548 34.9316L82.4332 41.4253C82.8262 41.8133 82.8304 42.4464 82.4424 42.8395C82.3752 42.9075 82.2987 42.9655 82.2151 43.0118L74.8633 47.0821" stroke="black" stroke-width="2.5" stroke-linecap="round"/>
<path d="M139.44 34.999L133.145 41.4194C132.758 41.8138 132.765 42.4469 133.159 42.8336C133.225 42.8981 133.299 42.9532 133.38 42.9974L140.867 47.0817" stroke="black" stroke-width="2.5" stroke-linecap="round"/>
</svg>
