<svg width="16" height="18" viewBox="0 0 16 18" fill="none" xmlns="http://www.w3.org/2000/svg">
<path fill-rule="evenodd" clip-rule="evenodd" d="M0.916026 2.33333C0.916026 1.18274 1.84877 0.25 2.99936 0.25H12.9994C14.15 0.25 15.0827 1.18274 15.0827 2.33333V17.3333C15.0827 17.4739 15.0118 17.6051 14.8941 17.682C14.7764 17.759 14.6278 17.7714 14.499 17.7151L11.3327 16.3298L8.16637 17.7151C8.0599 17.7616 7.93882 17.7616 7.83235 17.7151L4.66603 16.3298L1.4997 17.7151C1.37087 17.7714 1.22231 17.759 1.10463 17.682C0.986949 17.6051 0.916026 17.4739 0.916026 17.3333V2.33333ZM2.99936 1.08333C2.309 1.08333 1.74936 1.64298 1.74936 2.33333V16.6962L4.49902 15.4933C4.60549 15.4467 4.72657 15.4467 4.83303 15.4933L7.99936 16.8785L11.1657 15.4933C11.2722 15.4467 11.3932 15.4467 11.4997 15.4933L14.2494 16.6962V2.33333C14.2494 1.64298 13.6897 1.08333 12.9994 1.08333H2.99936ZM8.83269 8.58333H3.41603V7.75H8.83269V8.58333ZM3.41603 11.9167H8.83269V11.0833H3.41603V11.9167ZM12.5827 8.58333H10.916V7.75H12.5827V8.58333ZM10.916 11.9167H12.5827V11.0833H10.916V11.9167ZM8.83269 5.25H3.41603V4.41667H8.83269V5.25ZM10.916 5.25H12.5827V4.41667H10.916V5.25Z" fill="black"/>
</svg>
