<svg width="14" height="14" viewBox="0 0 14 14" fill="none" xmlns="http://www.w3.org/2000/svg">
<g clip-path="url(#clip0_432_11909)">
<path d="M12.9062 7C12.9062 8.21861 12.5372 9.35102 11.9048 10.2916C10.8443 11.8686 9.04332 12.9062 7 12.9062C4.95668 12.9062 3.1557 11.8686 2.09525 10.2916C1.46281 9.35102 1.09375 8.21861 1.09375 7C1.09375 3.73807 3.73807 1.09375 7 1.09375C10.2619 1.09375 12.9062 3.73807 12.9062 7Z" stroke="#676767" stroke-width="1.3125"/>
<path d="M7.65625 5.03125C7.65625 5.39369 7.36244 5.6875 7 5.6875V7C8.08731 7 8.96875 6.11856 8.96875 5.03125H7.65625ZM7 5.6875C6.63756 5.6875 6.34375 5.39369 6.34375 5.03125H5.03125C5.03125 6.11856 5.91269 7 7 7V5.6875ZM6.34375 5.03125C6.34375 4.66881 6.63756 4.375 7 4.375V3.0625C5.91269 3.0625 5.03125 3.94394 5.03125 5.03125H6.34375ZM7 4.375C7.36244 4.375 7.65625 4.66881 7.65625 5.03125H8.96875C8.96875 3.94394 8.08731 3.0625 7 3.0625V4.375Z" fill="#676767"/>
<path d="M2.51514 10.8433L1.88619 10.656L1.78405 10.9989L2.01702 11.2705L2.51514 10.8433ZM11.4849 10.8433L11.9831 11.2705L12.216 10.9989L12.1139 10.656L11.4849 10.8433ZM5.03129 9.625H8.96879V8.3125H5.03129V9.625ZM5.03129 8.3125C3.54412 8.3125 2.28962 9.30135 1.88619 10.656L3.14409 11.0306C3.38637 10.2171 4.14054 9.625 5.03129 9.625V8.3125ZM7.00004 12.25C5.40528 12.25 3.97712 11.5398 3.01325 10.416L2.01702 11.2705C3.21959 12.6726 5.00624 13.5625 7.00004 13.5625V12.25ZM8.96879 9.625C9.85954 9.625 10.6137 10.2171 10.856 11.0306L12.1139 10.656C11.7105 9.30135 10.456 8.3125 8.96879 8.3125V9.625ZM10.9868 10.416C10.023 11.5398 8.59481 12.25 7.00004 12.25V13.5625C8.99384 13.5625 10.7805 12.6726 11.9831 11.2705L10.9868 10.416Z" fill="#676767"/>
</g>
<defs>
<clipPath id="clip0_432_11909">
<rect width="14" height="14" fill="white"/>
</clipPath>
</defs>
</svg>
