<svg width="16" height="15" viewBox="0 0 16 15" fill="none" xmlns="http://www.w3.org/2000/svg">
<path fill-rule="evenodd" clip-rule="evenodd" d="M8.62404 1.11668C8.24615 0.864753 7.75385 0.864753 7.37596 1.11668L2.12596 4.61668C1.81299 4.82533 1.625 5.17659 1.625 5.55273V12.25C1.625 12.8713 2.12868 13.375 2.75 13.375H5.375V9.99996C5.375 8.96443 6.21447 8.12496 7.25 8.12496H8.75C9.78553 8.12496 10.625 8.96443 10.625 9.99996V13.375H13.25C13.8713 13.375 14.375 12.8713 14.375 12.25V5.55273C14.375 5.17659 14.187 4.82533 13.874 4.61668L8.62404 1.11668ZM6.95994 0.49264C7.58975 0.0727658 8.41025 0.0727659 9.04006 0.49264L14.2901 3.99264C14.8117 4.34039 15.125 4.92582 15.125 5.55273V12.25C15.125 13.2855 14.2855 14.125 13.25 14.125H10.25C10.0429 14.125 9.875 13.9571 9.875 13.75V9.99996C9.875 9.37864 9.37132 8.87496 8.75 8.87496H7.25C6.62868 8.87496 6.125 9.37864 6.125 9.99996V13.75C6.125 13.9571 5.95711 14.125 5.75 14.125H2.75C1.71447 14.125 0.875 13.2855 0.875 12.25V5.55273C0.875 4.92582 1.18831 4.34039 1.70994 3.99264L6.95994 0.49264Z" fill="black"/>
</svg>
