<svg width="16" height="14" viewBox="0 0 16 14" fill="none" xmlns="http://www.w3.org/2000/svg">
<path fill-rule="evenodd" clip-rule="evenodd" d="M3.47797 6.18038C3.87301 3.57776 6.12011 1.58333 8.83303 1.58333C11.8246 1.58333 14.2497 4.00846 14.2497 7C14.2497 9.99154 11.8246 12.4167 8.83303 12.4167C6.86315 12.4167 5.13841 11.3654 4.18991 9.79128L3.47614 10.2214C4.56915 12.0353 6.55903 13.25 8.83303 13.25C12.2848 13.25 15.083 10.4518 15.083 7C15.083 3.54822 12.2848 0.75 8.83303 0.75C5.79265 0.75 3.25933 2.92095 2.69865 5.79727L1.67972 4.26887L0.986341 4.73112L2.65301 7.23112C2.78065 7.4226 3.03935 7.47433 3.23082 7.34669L5.73082 5.68002L5.26857 4.98665L3.47797 6.18038Z" fill="#676767"/>
</svg>
