<svg width="28" height="28" viewBox="0 0 28 28" fill="none" xmlns="http://www.w3.org/2000/svg">
<path d="M9.45091 23.2615L18.1704 23.2615V4.35964L9.45091 4.35964V23.2615ZM17.3705 22.4616L10.2508 22.4616L10.2508 21.2816L12.9621 21.2816L12.9621 20.4817L10.2508 20.4817L10.2508 18.4531L11.8307 18.4531L11.8307 17.6532L10.2508 17.6532V15.6247H12.9621V14.8248L10.2508 14.8248V12.7963L11.8307 12.7963V11.9964H10.2508V9.96784L12.9621 9.96785L12.9621 9.16797L10.2508 9.16797L10.2508 7.13942L11.8307 7.13942L11.8307 6.33954L10.2508 6.33954L10.2508 5.15952L17.3705 5.15952V22.4616Z" fill="black"/>
</svg>
