<svg width="96" height="95" viewBox="0 0 96 95" fill="none" xmlns="http://www.w3.org/2000/svg">
<path d="M40.4792 53.9324H56.5105V68.3803H40.4792V53.9324Z" fill="#676767"/>
<path d="M34.1458 85.1042H42.0624V82.1355H34.1458V85.1042Z" fill="#676767"/>
<path d="M46.0317 80.1562H34.1567V77.1875H46.0317V80.1562Z" fill="#676767"/>
<path fill-rule="evenodd" clip-rule="evenodd" d="M6.94722 41.5624H9.96584C9.9985 41.3136 10.0436 41.0674 10.1002 40.8244L26.2292 53.5578V91.0416H69.7709V53.5578L85.8999 40.8244C85.9565 41.0674 86.0017 41.3136 86.0343 41.5624H89.0529C89.0628 41.2341 89.0678 40.9043 89.0678 40.5728C89.0678 20.322 70.6297 3.95825 48.0001 3.95825C25.3705 3.95825 6.93237 20.322 6.93237 40.5728C6.93237 40.9043 6.93732 41.2341 6.94722 41.5624ZM56.4115 68.2812V53.9322H66.8022V88.0728H29.198V53.9322H40.5782V68.2812H56.4115ZM36.3553 41.5624H33.2561C32.6386 36.8934 27.7049 33.151 21.6113 33.151C17.1825 33.151 13.3427 35.1361 11.3522 38.0304L27.7342 50.9635H42.2512L36.535 40.6429C36.4566 40.9447 36.3962 41.2515 36.3553 41.5624ZM48.0001 33.151C52.1557 33.151 55.7691 34.8756 57.8447 37.4412L50.3555 50.9635H45.6449L38.1668 37.4618C40.2449 34.8835 43.8539 33.151 48.0001 33.151ZM84.6479 38.0304C82.6575 35.1361 78.8177 33.151 74.3889 33.151C68.2812 33.151 63.3196 36.9052 62.7366 41.5624H59.6534C59.6138 41.2452 59.5543 40.9323 59.4753 40.6243L53.7492 50.9635H68.266L84.6479 38.0304ZM37.1311 29.8709C38.3259 20.2779 41.8959 13.6912 49.8647 6.96659C67.7021 7.72698 82.2971 19.3368 85.4619 34.4242C82.7554 31.8115 78.7739 30.1822 74.3889 30.1822C68.6398 30.1822 63.5969 32.9728 61.1974 37.076C58.8028 32.9705 53.7644 30.1822 48.0001 30.1822C42.2385 30.1822 37.2014 32.9885 34.8056 37.1146C32.41 32.9885 27.3728 30.1822 21.6113 30.1822C17.2262 30.1822 13.2447 31.8115 10.5382 34.4242C13.6582 19.5513 27.8852 8.0579 45.3763 7.00558C38.6028 13.4858 35.3354 20.2684 34.1851 29.504L37.1311 29.8709Z" fill="#676767"/>
</svg>
