<svg width="22" height="22" viewBox="0 0 22 22" fill="none" xmlns="http://www.w3.org/2000/svg">
<path fill-rule="evenodd" clip-rule="evenodd" d="M6.75 6C6.75 3.65279 8.65279 1.75 11 1.75C13.3472 1.75 15.25 3.65279 15.25 6V6.5H6.75V6ZM5.25 8V9.75C5.25 10.1642 5.58579 10.5 6 10.5C6.41421 10.5 6.75 10.1642 6.75 9.75V8H15.25V9.75C15.25 10.1642 15.5858 10.5 16 10.5C16.4142 10.5 16.75 10.1642 16.75 9.75V8H20.1787L19.1684 19.1132C19.1099 19.757 18.5701 20.25 17.9236 20.25H4.07643C3.42992 20.25 2.89009 19.757 2.83156 19.1132L1.82127 8H5.25ZM5.25 6.5V6C5.25 2.82436 7.82436 0.25 11 0.25C14.1756 0.25 16.75 2.82436 16.75 6V6.5H21C21.2107 6.5 21.4117 6.58865 21.5538 6.74425C21.6959 6.89985 21.766 7.10805 21.7469 7.3179L20.6623 19.249C20.5335 20.6654 19.3459 21.75 17.9236 21.75H4.07643C2.65412 21.75 1.46649 20.6654 1.33772 19.249L0.253079 7.3179C0.234002 7.10805 0.304086 6.89985 0.446182 6.74425C0.588279 6.58865 0.789279 6.5 0.999999 6.5H5.25Z" fill="white"/>
</svg>
