<svg width="14" height="14" viewBox="0 0 14 14" fill="none" xmlns="http://www.w3.org/2000/svg">
<path fill-rule="evenodd" clip-rule="evenodd" d="M13.9693 7.58548C14 7.45746 14 7.32142 14 7.04935V1.77979C14 1.1568 14 0.84531 13.8788 0.607362C13.7721 0.398057 13.6019 0.227887 13.3926 0.121241C13.1547 0 12.8432 0 12.2202 0H6.95063C6.67855 0 6.54252 0 6.4145 0.0307348C6.301 0.0579841 6.19249 0.102928 6.09297 0.163918C5.98071 0.232708 5.88452 0.3289 5.69214 0.521283L0.797739 5.4157C0.357224 5.85621 0.136967 6.07647 0.0544429 6.33045C-0.0181476 6.55387 -0.0181476 6.79452 0.0544429 7.01793C0.136967 7.27192 0.357224 7.49218 0.797738 7.93269L6.06729 13.2023C6.5078 13.6428 6.72806 13.863 6.98204 13.9456C7.20545 14.0181 7.44611 14.0181 7.66952 13.9456C7.9235 13.863 8.14376 13.6428 8.58427 13.2023L13.4787 8.30785C13.6711 8.11547 13.7673 8.01927 13.8361 7.90701C13.8971 7.80749 13.942 7.69898 13.9693 7.58548ZM9.91667 5.83333C10.8832 5.83333 11.6667 5.04983 11.6667 4.08333C11.6667 3.11683 10.8832 2.33333 9.91667 2.33333C8.95017 2.33333 8.16667 3.11683 8.16667 4.08333C8.16667 5.04983 8.95017 5.83333 9.91667 5.83333Z" fill="#E91C41"/>
</svg>
