<svg width="32" height="32" viewBox="0 0 32 32" fill="none" xmlns="http://www.w3.org/2000/svg">
<path fill-rule="evenodd" clip-rule="evenodd" d="M16 0C7.16344 0 0 7.16344 0 16C0 24.8366 7.16344 32 16 32C24.8366 32 32 24.8366 32 16C32 7.16344 24.8366 0 16 0ZM16.4995 11.5537C14.9471 12.213 11.8444 13.5775 7.19158 15.6473C6.43602 15.9541 6.04023 16.2542 6.0042 16.5476C5.94331 17.0436 6.55158 17.2389 7.37989 17.5048C7.49256 17.541 7.6093 17.5784 7.72898 17.6182C8.54391 17.8886 9.64013 18.2051 10.21 18.2176C10.7269 18.229 11.3039 18.0114 11.9409 17.5648C16.2882 14.5686 18.5323 13.0541 18.6732 13.0215C18.7726 12.9985 18.9103 12.9695 19.0037 13.0542C19.097 13.1389 19.0878 13.2993 19.0779 13.3423C19.0177 13.6046 16.63 15.8711 15.3943 17.044C15.0091 17.4096 14.7359 17.669 14.6801 17.7282C14.5549 17.8609 14.4274 17.9864 14.3048 18.107C13.5478 18.8522 12.98 19.411 14.3363 20.3236C14.988 20.7621 15.5096 21.1247 16.0299 21.4865C16.5981 21.8816 17.1649 22.2757 17.8982 22.7665C18.085 22.8915 18.2634 23.0214 18.4372 23.1479C19.0985 23.6292 19.6926 24.0617 20.4266 23.9927C20.8531 23.9527 21.2936 23.5432 21.5174 22.322C22.0461 19.4359 23.0854 13.1827 23.3256 10.6059C23.3467 10.3801 23.3202 10.0912 23.2989 9.96434C23.2777 9.83751 23.2332 9.65679 23.0718 9.52302C22.8806 9.36459 22.5853 9.33118 22.4533 9.33344C21.853 9.34435 20.932 9.67134 16.4995 11.5537Z" fill="black"/>
</svg>
