<svg width="18" height="20" viewBox="0 0 18 20" fill="none" xmlns="http://www.w3.org/2000/svg">
<path fill-rule="evenodd" clip-rule="evenodd" d="M5.66406 0.833984C4.28335 0.833984 3.16406 1.95327 3.16406 3.33398H0.664062V5.00065H3.9974H13.9974H17.3307V3.33398H14.8307C14.8307 1.95327 13.7114 0.833984 12.3307 0.833984H5.66406ZM13.1641 3.33398C13.1641 2.87375 12.791 2.50065 12.3307 2.50065H5.66406C5.20383 2.50065 4.83073 2.87375 4.83073 3.33398H13.1641ZM3.16146 5.41797C2.93049 5.41797 2.70987 5.51383 2.55227 5.68268C2.39467 5.85153 2.31421 6.07821 2.3301 6.30864L3.16343 18.392C3.19357 18.8289 3.55681 19.168 3.99479 19.168H13.9948C14.4328 19.168 14.796 18.8289 14.8262 18.392L15.6595 6.30864C15.6754 6.07821 15.5949 5.85153 15.4373 5.68268C15.2797 5.51383 15.0591 5.41797 14.8281 5.41797H3.16146ZM4.77263 17.5013L4.05424 7.08464H13.9353L13.217 17.5013H4.77263ZM8.16406 15.834V8.33398H9.83073V15.834H8.16406ZM5.25 8.37956L5.66667 15.8796L7.33077 15.7871L6.9141 8.28711L5.25 8.37956ZM12.3333 15.8796L12.75 8.37956L11.0859 8.28711L10.6692 15.7871L12.3333 15.8796Z" fill="#676767"/>
</svg>
