<svg width="32" height="32" viewBox="0 0 32 32" fill="none" xmlns="http://www.w3.org/2000/svg">
<path fill-rule="evenodd" clip-rule="evenodd" d="M16 0C7.16344 0 0 7.16344 0 16C0 24.8366 7.16344 32 16 32C24.8366 32 32 24.8366 32 16C32 7.16344 24.8366 0 16 0ZM23.8417 13.0417V12.5417C24.6167 11.9917 25.2667 11.2917 25.7667 10.4917C25.0667 10.8167 24.3167 11.0167 23.5167 11.1167C24.3167 10.6167 24.9417 9.86667 25.2417 8.94167C24.4667 9.39167 23.6417 9.71667 22.7417 9.89167C22.0417 9.14167 21.0167 8.66667 19.8917 8.66667C17.7167 8.66667 15.9667 10.4167 15.9667 12.5917C15.9667 12.8917 15.9917 13.2167 16.0667 13.4917C12.8167 13.3167 9.91667 11.7667 7.99167 9.39167C7.66667 9.96667 7.46667 10.6417 7.46667 11.3667C7.46667 12.7417 8.16667 13.9417 9.21667 14.6417C8.56667 14.6167 7.96667 14.4417 7.44167 14.1417V14.1917C7.44167 16.0917 8.79167 17.6667 10.5917 18.0167C10.2667 18.1167 9.91667 18.1667 9.56667 18.1667C9.29167 18.1667 9.06667 18.1417 8.81667 18.0917C9.29167 19.6417 10.7417 20.7917 12.4667 20.8167C11.1167 21.8667 9.41667 22.4917 7.59167 22.4917C7.29167 22.4917 6.96667 22.4667 6.66667 22.4417C8.41667 23.5417 10.4667 24.1917 12.6917 24.1917C19.8917 24.1917 23.8417 18.2167 23.8417 13.0417Z" fill="black"/>
</svg>
