<svg width="24" height="24" viewBox="0 0 24 24" fill="none" xmlns="http://www.w3.org/2000/svg">
<path fill-rule="evenodd" clip-rule="evenodd" d="M12 2.5C9.23858 2.5 7 4.73858 7 7.5C7 10.2614 9.23858 12.5 12 12.5C14.7614 12.5 17 10.2614 17 7.5C17 4.73858 14.7614 2.5 12 2.5ZM6 7.5C6 4.18629 8.68629 1.5 12 1.5C15.3137 1.5 18 4.18629 18 7.5C18 10.8137 15.3137 13.5 12 13.5C8.68629 13.5 6 10.8137 6 7.5Z" fill="black"/>
<path fill-rule="evenodd" clip-rule="evenodd" d="M12.0016 13.5C7.43575 13.5 3.67002 16.372 2.72968 20.1404C2.56228 20.8112 3.12829 21.5 4.00161 21.5H20.0016C20.8749 21.5 21.4409 20.8112 21.2735 20.1404C20.3332 16.372 16.5675 13.5 12.0016 13.5ZM1.75943 19.8983C2.8242 15.6313 7.034 12.5 12.0016 12.5C16.9692 12.5 21.179 15.6313 22.2438 19.8983C22.6112 21.3709 21.3374 22.5 20.0016 22.5H4.00161C2.66579 22.5 1.39197 21.3709 1.75943 19.8983Z" fill="black"/>
</svg>
