<svg width="32" height="32" viewBox="0 0 32 32" fill="none" xmlns="http://www.w3.org/2000/svg">
<path fill-rule="evenodd" clip-rule="evenodd" d="M16 0C7.16344 0 0 7.16344 0 16C0 24.8366 7.16344 32 16 32C24.8366 32 32 24.8366 32 16C32 7.16344 24.8366 0 16 0ZM16.659 6.08333C19.0806 6.08333 21.4518 7.04189 23.1671 8.80766C24.8824 10.523 25.841 12.8437 25.841 15.3158C25.841 20.4113 21.7041 24.5986 16.6086 24.5986C15.0951 24.5986 13.5815 24.2455 12.2194 23.4887L7.32568 24.75L8.6374 19.9572C7.88064 18.5446 7.42658 16.9806 7.42658 15.3662C7.37613 10.2707 11.5131 6.08333 16.659 6.08333ZM12.4716 21.8239L12.7743 21.9752C13.9347 22.6815 15.2969 23.0347 16.659 23.0347C18.0716 23.0347 19.4842 22.6311 20.6446 21.8743C24.277 19.6545 25.3365 14.9626 23.1167 11.3302C20.8969 7.69775 16.205 6.63829 12.5725 8.85811C8.9401 11.0779 7.88064 15.8203 10.1005 19.4023L10.3023 19.705L9.5455 22.5806L12.4716 21.8239ZM20.5437 17.1824L21.0987 17.4347C21.1996 17.4851 21.25 17.5356 21.25 17.5356V17.8887C21.1996 18.141 21.1491 18.3932 21.0482 18.595C20.9978 18.6959 20.8969 18.7968 20.796 18.8977C20.7455 18.9482 20.6951 18.986 20.6446 19.0239C20.5942 19.0617 20.5437 19.0996 20.4933 19.15L20.3924 19.2509C20.3357 19.3076 20.279 19.3324 20.2134 19.3612C20.1622 19.3836 20.1056 19.4085 20.0392 19.4527C19.8374 19.5536 19.5347 19.6545 19.2824 19.6545H18.7779C18.7023 19.6293 18.614 19.6167 18.5257 19.6041C18.4374 19.5914 18.3491 19.5788 18.2734 19.5536C16.9113 19.2005 15.7005 18.5446 14.641 17.6365C14.5751 17.5376 14.4876 17.4603 14.3927 17.3763C14.3423 17.3318 14.2899 17.2854 14.2374 17.2329L14.0356 17.0311C13.2284 16.2743 12.623 15.4167 12.1689 14.4581L12.1185 14.3068C11.9671 13.9536 11.8662 13.55 11.8662 13.1464C11.8662 12.5914 12.068 12.0365 12.4212 11.5824C12.4716 11.532 12.5095 11.4815 12.5473 11.4311C12.5851 11.3806 12.623 11.3302 12.6734 11.2797C12.7239 11.2545 12.7743 11.2167 12.8248 11.1788C12.8752 11.141 12.9257 11.1032 12.9761 11.0779L13.0266 11.0275C13.077 11.0275 13.1275 11.0149 13.1779 11.0023C13.2284 10.9896 13.2788 10.977 13.3293 10.977H13.7329H13.8842C14.0356 11.0275 14.1365 11.0779 14.2374 11.2293C14.3887 11.532 14.9942 12.8941 15.0446 13.1464C15.0951 13.2977 15.0446 13.4995 14.9437 13.6509C14.8933 13.7014 14.8554 13.7644 14.8176 13.8275C14.7797 13.8905 14.7419 13.9536 14.6915 14.0041C14.5401 14.1554 14.3383 14.4077 14.3383 14.4077C14.2878 14.4581 14.2878 14.559 14.2878 14.6599C14.3071 14.6985 14.319 14.7296 14.3292 14.7563C14.3457 14.7994 14.3576 14.8305 14.3887 14.8617L14.4392 14.9626C14.6915 15.4167 15.0446 15.8203 15.3978 16.1734C15.4482 16.2239 15.5113 16.2743 15.5743 16.3248C15.6374 16.3752 15.7005 16.4257 15.7509 16.4761C16.1545 16.8797 16.659 17.1824 17.214 17.4347L17.4662 17.5356C17.5167 17.586 17.6176 17.6365 17.668 17.6365H17.7185C17.8194 17.6365 17.9203 17.586 17.9707 17.4851C18.677 16.6779 18.7275 16.6275 18.7275 16.6275C18.8284 16.577 18.9293 16.5266 19.0806 16.5266C19.1059 16.5266 19.1311 16.5392 19.1563 16.5518C19.1815 16.5644 19.2068 16.577 19.232 16.577C19.7365 16.8293 20.5437 17.1824 20.5437 17.1824Z" fill="black"/>
</svg>
