<svg width="96" height="96" viewBox="0 0 96 96" fill="none" xmlns="http://www.w3.org/2000/svg">
<path d="M39.1115 68.9274L36.6403 72.0726L45.2417 78.831L60.4707 58.7068L57.2811 56.2932L44.5101 73.169L39.1115 68.9274Z" fill="#676767"/>
<path fill-rule="evenodd" clip-rule="evenodd" d="M22.8285 79.5488C24.5585 80.7552 26.6091 81.3656 28.7495 81.3786V85.533C28.7495 86.983 29.3257 88.3738 30.3509 89.3988C31.3757 90.4238 32.7665 91 34.2165 91H62.2825C63.7325 90.9998 65.1233 90.4238 66.1483 89.3986C67.1735 88.3736 67.7495 86.983 67.7495 85.533V81.3646C69.7079 81.267 71.5759 80.6614 73.1707 79.5484C75.7243 77.768 77.2253 74.9356 77.4215 71.7354C77.6071 68.8464 79.5299 66.3048 82.3721 65.2272C85.4501 64.074 87.7821 61.8412 88.7611 58.9492C89.7437 56.0456 89.2203 52.8974 87.4201 50.199C85.8017 47.757 85.8011 44.6426 87.4211 42.1956C89.2199 39.504 89.7441 36.3552 88.7611 33.451C87.7825 30.5594 85.4517 28.3268 82.3693 27.1696C79.5297 26.0934 77.6067 23.5536 77.4191 20.659C77.2257 17.4654 75.7251 14.6328 73.1701 12.8516C70.6355 11.0828 67.4091 10.595 64.2201 11.3928C61.2437 12.1306 58.0909 11.148 56.1437 8.8856C54.0485 6.4304 51.1307 5 47.9997 5C44.8699 5 41.9525 6.4294 39.8509 8.8872C37.9083 11.147 34.7577 12.1304 31.7783 11.3944C28.5909 10.5954 25.3653 11.0828 22.8285 12.8516C20.2749 14.632 18.7751 17.4634 18.5785 20.664C18.3925 23.5538 16.4693 26.0956 13.6271 27.1734C10.5499 28.3256 8.21809 30.5582 7.23909 33.4512C6.25609 36.3548 6.77889 39.503 8.57869 42.2012C10.1975 44.6434 10.1981 47.7578 8.57789 50.204C6.77929 52.8956 6.25589 56.0444 7.23909 58.949C8.21789 61.8404 10.5485 64.0732 13.6309 65.2308C16.4695 66.306 18.3937 68.8468 18.5811 71.7406C18.7745 74.935 20.2743 77.7678 22.8285 79.5488ZM71.4543 77.088C70.3779 77.839 69.1073 78.2664 67.7495 78.359V50.999C73.4209 50.9992 77.2843 50.9998 77.3659 51.0002C79.0453 51.0112 80.5031 49.8442 80.8593 48.2028C81.2159 46.5618 80.3739 44.8952 78.8413 44.2086C76.0577 42.9612 72.7357 41.4914 68.9829 39.8446L68.4251 39.6C64.1565 37.7282 59.5837 35.7376 55.0109 33.7568C53.4105 33.0636 51.9243 32.4212 50.5905 31.8454L50.0141 31.5968C50.1529 31.0172 50.3921 30.6346 50.7101 30.3548C50.8901 30.1962 51.7593 29.6508 51.6383 29.7344C53.1825 28.6684 54.1257 26.912 54.1257 25C54.1257 21.826 51.5497 19.25 48.3757 19.25C45.2017 19.25 42.6257 21.826 42.6257 25H45.6257C45.6257 23.4828 46.8585 22.25 48.3757 22.25C49.8929 22.25 51.1257 23.4828 51.1257 25C51.1257 25.9082 50.6823 26.7408 49.9509 27.2538C50.1891 27.0862 49.1135 27.7634 48.7275 28.1032C47.8229 28.8998 47.2267 29.9918 46.9903 31.4634L46.1157 31.8692C44.8641 32.4498 43.4689 33.0966 41.9659 33.7932C37.6715 35.7838 33.3727 37.7742 29.3545 39.6318L29.2473 39.6814C25.4855 41.4206 22.1647 42.953 19.4047 44.223C17.8931 44.9186 17.0671 46.5708 17.4179 48.1974C17.7709 49.8352 19.2207 51.024 20.8973 50.9998C20.9311 50.9994 24.0253 50.999 28.7495 50.9988V59H31.7495V48H64.7495V85.533C64.7495 86.1874 64.4895 86.8148 64.0269 87.2772C63.5643 87.74 62.9367 88 62.2825 88H34.2165C33.5623 88 32.9347 87.74 32.4723 87.2774C32.0095 86.8148 31.7495 86.1872 31.7495 85.533V65H28.7495V78.3782C27.2035 78.3652 25.7521 77.93 24.5443 77.088C22.7655 75.8476 21.7151 73.8636 21.5753 71.553C21.3105 67.4654 18.6197 63.9124 14.6895 62.4238C12.4101 61.5678 10.7565 59.9836 10.0807 57.9872C9.40889 56.0026 9.77229 53.8162 11.0757 51.8658C13.3647 48.4098 13.3637 43.9902 11.0769 40.54C9.77209 38.584 9.40889 36.3972 10.0807 34.413C10.7567 32.4156 12.4099 30.8324 14.6849 29.9808C18.6207 28.4882 21.3099 24.934 21.5725 20.8522C21.7149 18.5362 22.7655 16.5528 24.5443 15.3124C26.3395 14.0606 28.6733 13.7084 31.0555 14.3062C35.1271 15.3132 39.4397 13.9676 42.1283 10.8398C43.6787 9.0268 45.7743 8 47.9997 8C50.2255 8 52.3207 9.027 53.8659 10.8378C56.5603 13.9688 60.8739 15.313 64.9451 14.304C67.3269 13.708 69.6609 14.061 71.4539 15.312C73.2341 16.5534 74.2851 18.537 74.4249 20.8466C74.6899 24.9348 77.3793 28.4866 81.3107 29.9766C83.5903 30.8324 85.2437 32.4162 85.9193 34.4128C86.5909 36.3968 86.2269 38.5832 84.9231 40.5342C82.6347 43.991 82.6355 48.4102 84.9219 51.86C86.2273 53.8168 86.5909 56.0036 85.9195 57.9874C85.2437 59.9838 83.5897 61.5674 81.3141 62.42C77.3787 63.912 74.6895 67.4664 74.4273 71.5474C74.2855 73.863 73.2337 75.8472 71.4543 77.088ZM77.3855 48.0004C77.2989 47.9998 73.4285 47.9992 67.7495 47.999V45H28.7495V47.999C24.0049 47.9992 20.8935 47.9996 20.8537 48.0002C20.6257 48.0034 20.4061 47.8234 20.3505 47.565C20.2961 47.3126 20.4243 47.0562 20.6589 46.9482C23.4205 45.6774 26.7429 44.1442 30.5061 42.4046L30.6133 42.355C34.6327 40.4968 38.9323 38.506 43.2275 36.5152C44.3669 35.987 45.4443 35.4874 46.4443 35.0236C46.7635 34.8756 47.0751 34.7312 47.3781 34.5906L48.3429 34.143L49.4017 34.5998C50.7343 35.175 52.2193 35.817 53.8185 36.5098C58.3875 38.4888 62.9565 40.4776 67.2203 42.3474L67.7773 42.5918C71.5237 44.2358 74.8389 45.7024 77.6145 46.9462C77.8525 47.0528 77.9831 47.3114 77.9277 47.566C77.8725 47.821 77.6463 48.002 77.3855 48.0004Z" fill="#676767"/>
</svg>
