<svg width="32" height="32" viewBox="0 0 32 32" fill="none" xmlns="http://www.w3.org/2000/svg">
<path d="M13 27C10.6266 27 8.30655 26.2962 6.33316 24.9776C4.35977 23.6591 2.8217 21.7849 1.91345 19.5922C1.0052 17.3995 0.767559 14.9867 1.23058 12.6589C1.6936 10.3312 2.83649 8.19295 4.51472 6.51472C6.19295 4.83649 8.33115 3.6936 10.6589 3.23058C12.9867 2.76756 15.3995 3.0052 17.5922 3.91345C19.7849 4.8217 21.6591 6.35977 22.9776 8.33316C24.2962 10.3066 25 12.6266 25 15C25 18.1826 23.7357 21.2348 21.4853 23.4853C19.2348 25.7357 16.1826 27 13 27ZM13 5.00001C11.0222 5.00001 9.08879 5.58649 7.4443 6.68531C5.79981 7.78412 4.51809 9.34591 3.76121 11.1732C3.00433 13.0004 2.8063 15.0111 3.19215 16.9509C3.578 18.8907 4.53041 20.6725 5.92894 22.0711C7.32746 23.4696 9.10929 24.422 11.0491 24.8079C12.9889 25.1937 14.9996 24.9957 16.8268 24.2388C18.6541 23.4819 20.2159 22.2002 21.3147 20.5557C22.4135 18.9112 23 16.9778 23 15C23 13.6868 22.7413 12.3864 22.2388 11.1732C21.7363 9.95992 20.9997 8.85752 20.0711 7.92894C19.1425 7.00035 18.0401 6.26376 16.8268 5.76121C15.6136 5.25866 14.3132 5.00001 13 5.00001Z" fill="#101820"/>
<path d="M30 29C29.7836 29 29.5731 28.9298 29.4 28.8L21.4 22.8C21.2949 22.7212 21.2064 22.6225 21.1395 22.5095C21.0726 22.3965 21.0286 22.2714 21.0101 22.1414C20.9915 22.0114 20.9987 21.879 21.0313 21.7518C21.0639 21.6246 21.1212 21.5051 21.2 21.4C21.2788 21.2949 21.3775 21.2064 21.4905 21.1395C21.6035 21.0726 21.7286 21.0286 21.8586 21.0101C21.9886 20.9915 22.121 20.9987 22.2482 21.0313C22.3754 21.0639 22.4949 21.1212 22.6 21.2L30.6 27.2C30.8122 27.3591 30.9524 27.596 30.99 27.8586C31.0275 28.1211 30.9591 28.3878 30.8 28.6C30.7069 28.7242 30.5861 28.825 30.4472 28.8944C30.3084 28.9639 30.1552 29 30 29Z" fill="#101820"/>
<path d="M17 14H9V16H17V14Z" fill="#101820"/>
<path d="M14 11H12V19H14V11Z" fill="#101820"/>
</svg>
